<svg width="440" height="764" viewBox="0 0 440 764" fill="none" xmlns="http://www.w3.org/2000/svg">
<g clip-path="url(#clip0)">
<rect width="440" height="764" fill="black"/>
<path d="M44.7158 35.6667H393.5L419.5 471.167H25.0111C22.137 471.167 19.8546 468.749 20.0193 465.88L44.7158 35.6667Z" fill="url(#paint0_radial)" fill-opacity="0.57"/>
<path d="M219.893 552L235.389 605.262H204.397L219.893 552Z" fill="white"/>
<path d="M426 407.232C426 560.087 332.343 684 216.812 684C101.281 684 15 560.087 15 407.232C15 254.377 101.281 159 216.812 159C332.343 159 426 254.377 426 407.232Z" fill="url(#paint1_linear)"/>
<path fill-rule="evenodd" clip-rule="evenodd" d="M362.337 601.128C399.764 551.61 423 483.068 423 407.232C438.5 265 330.342 163.5 216.812 163.5C159.93 163.5 110.32 185.454 74.8806 227.723C39.412 270.027 8.60841 327.5 18 407.232C18 483.124 39.4233 551.681 75.0174 601.185C110.599 650.672 160.219 681 216.812 681C273.432 681 324.912 650.643 362.337 601.128ZM216.812 684C332.343 684 426.5 539.5 438.5 389.5C438.5 236.645 332.343 159 216.812 159C101.281 159 1.5 241.645 1.5 394.5C12.5 537 101.281 684 216.812 684Z" fill="#A0A0A0"/>
<path d="M250.231 200.57L254.19 198.795V194.491C254.19 194.247 254.285 194.024 254.435 193.916L265.128 186.198C265.128 186.198 265.223 186.121 265.354 186.133C265.483 186.146 265.578 186.251 265.578 186.251L273.203 194.183C273.318 194.304 273.387 194.498 273.387 194.706V216.62C273.387 216.855 273.299 217.07 273.159 217.182L265.534 223.278C265.534 223.278 265.446 223.349 265.35 223.357C265.254 223.366 265.166 223.315 265.166 223.315L254.474 217.385L250.203 215.016C250.032 214.921 249.92 214.683 249.92 214.416V201.183C249.921 200.901 250.046 200.653 250.231 200.57ZM271.544 212.434C271.544 212.5 271.565 212.564 271.602 212.604C271.628 212.633 271.658 212.648 271.69 212.648C271.703 212.648 271.717 212.645 271.73 212.64L272.595 212.29C272.658 212.264 272.702 212.18 272.702 212.083V208.85C272.702 208.79 272.685 208.733 272.654 208.692C272.623 208.651 272.582 208.631 272.541 208.638L271.676 208.76C271.601 208.771 271.544 208.863 271.544 208.973V212.434ZM271.544 205.512C271.544 205.624 271.602 205.716 271.679 205.726L272.544 205.83C272.548 205.831 272.552 205.831 272.556 205.831C272.592 205.831 272.628 205.811 272.655 205.774C272.686 205.734 272.703 205.677 272.703 205.618V202.383C272.703 202.286 272.658 202.201 272.594 202.177L271.728 201.845C271.684 201.828 271.637 201.842 271.601 201.882C271.565 201.923 271.545 201.986 271.545 202.052V205.512H271.544V205.512ZM271.544 198.59C271.544 198.674 271.578 198.751 271.631 198.786L272.496 199.345C272.515 199.357 272.535 199.362 272.555 199.362C272.584 199.362 272.612 199.351 272.635 199.328C272.677 199.289 272.702 199.221 272.702 199.149V195.915C272.702 195.841 272.676 195.772 272.633 195.733L271.768 194.947C271.723 194.905 271.666 194.904 271.619 194.942C271.573 194.979 271.545 195.051 271.545 195.128V198.59H271.544V198.59ZM269.389 213.308C269.389 213.375 269.41 213.438 269.446 213.479C269.472 213.507 269.504 213.522 269.535 213.522C269.548 213.522 269.561 213.52 269.574 213.514L270.733 213.044C270.797 213.018 270.841 212.934 270.841 212.838V209.115C270.841 209.055 270.824 208.997 270.793 208.957C270.762 208.916 270.721 208.897 270.68 208.902L269.52 209.068C269.445 209.079 269.388 209.171 269.388 209.28V213.308H269.389ZM269.389 205.252C269.389 205.364 269.447 205.457 269.523 205.466L270.682 205.606C270.687 205.606 270.691 205.606 270.694 205.606C270.731 205.606 270.767 205.587 270.794 205.55C270.824 205.51 270.842 205.453 270.842 205.393V201.671C270.842 201.573 270.796 201.488 270.732 201.463L269.573 201.019C269.529 201.002 269.482 201.016 269.446 201.057C269.41 201.097 269.389 201.16 269.389 201.226V205.252H269.389ZM269.389 197.197C269.389 197.282 269.422 197.358 269.476 197.393L270.635 198.141C270.654 198.154 270.674 198.159 270.694 198.159C270.723 198.159 270.75 198.147 270.774 198.124C270.815 198.085 270.841 198.018 270.841 197.945V194.222C270.841 194.149 270.814 194.08 270.771 194.041L269.612 192.987C269.567 192.946 269.51 192.944 269.464 192.981C269.417 193.019 269.388 193.091 269.388 193.168V197.197H269.389V197.197ZM266.388 214.523C266.388 214.586 266.405 214.645 266.436 214.691C266.489 214.769 266.562 214.77 266.586 214.77C266.586 214.77 266.586 214.77 266.586 214.77C266.875 214.77 267.997 214.181 268.219 214.063C268.276 214.032 268.315 213.951 268.315 213.861V209.475C268.315 209.415 268.298 209.357 268.267 209.316C268.237 209.275 268.195 209.256 268.155 209.262L266.52 209.495C266.445 209.506 266.388 209.598 266.388 209.709C266.388 209.753 266.389 214.318 266.388 214.523ZM266.388 204.891C266.388 205.003 266.447 205.096 266.523 205.105L268.157 205.301C268.161 205.302 268.165 205.302 268.169 205.302C268.206 205.302 268.241 205.282 268.269 205.246C268.299 205.205 268.316 205.149 268.316 205.088V200.702C268.316 200.604 268.271 200.52 268.207 200.494L266.573 199.869C266.529 199.852 266.482 199.865 266.446 199.906C266.41 199.947 266.389 200.01 266.389 200.075V204.891H266.388V204.891ZM266.388 195.259C266.388 195.344 266.423 195.42 266.475 195.454L268.109 196.509C268.128 196.522 268.148 196.528 268.168 196.528C268.196 196.528 268.224 196.516 268.249 196.493C268.29 196.453 268.315 196.386 268.315 196.313V191.927C268.315 191.854 268.289 191.785 268.246 191.746L266.612 190.261C266.567 190.22 266.511 190.217 266.464 190.255C266.417 190.293 266.388 190.365 266.388 190.442V195.259H266.388ZM259.894 192.857C259.894 192.785 259.869 192.718 259.827 192.678C259.786 192.639 259.734 192.632 259.688 192.661L257.945 193.761C257.891 193.795 257.856 193.873 257.856 193.957V197.757C257.856 197.825 257.878 197.888 257.916 197.929C257.941 197.956 257.972 197.972 258.003 197.972C258.017 197.972 258.032 197.968 258.046 197.961L259.79 197.18C259.851 197.153 259.894 197.069 259.894 196.975V192.857ZM259.894 201.093C259.894 201.03 259.874 200.97 259.84 200.928C259.807 200.888 259.763 200.871 259.72 200.882L257.976 201.346C257.906 201.364 257.856 201.454 257.856 201.557V205.392C257.856 205.45 257.873 205.507 257.903 205.548C257.93 205.585 257.966 205.605 258.003 205.605C258.006 205.605 258.01 205.605 258.013 205.605L259.757 205.424C259.833 205.416 259.893 205.323 259.893 205.21V201.093H259.894V201.093ZM264.433 189.995C264.433 189.923 264.408 189.855 264.367 189.816C264.326 189.776 264.274 189.769 264.228 189.798L261.751 191.36C261.697 191.394 261.663 191.471 261.663 191.557V196.05C261.663 196.117 261.685 196.182 261.722 196.222C261.748 196.25 261.779 196.264 261.809 196.264C261.824 196.264 261.838 196.261 261.852 196.254L264.329 195.144C264.391 195.117 264.433 195.033 264.433 194.94V189.995H264.433ZM264.433 204.831V199.885C264.433 199.822 264.414 199.762 264.38 199.721C264.347 199.68 264.303 199.663 264.26 199.675L261.783 200.334C261.713 200.352 261.662 200.44 261.662 200.544V205.038C261.662 205.096 261.679 205.153 261.709 205.193C261.736 205.231 261.772 205.251 261.808 205.251C261.812 205.251 261.814 205.251 261.817 205.251L264.294 205.043C264.373 205.038 264.433 204.945 264.433 204.831ZM259.6 219.623C259.6 219.711 259.637 219.791 259.695 219.822L262.937 221.621C262.953 221.631 262.971 221.635 262.989 221.635C263.019 221.635 263.047 221.623 263.072 221.597C263.112 221.558 263.135 221.492 263.135 221.422V209.648C263.135 209.536 263.076 209.442 262.999 209.435L259.757 209.115C259.715 209.112 259.676 209.132 259.647 209.172C259.617 209.213 259.6 209.27 259.6 209.328V219.623H259.6ZM255.693 217.456C255.693 217.545 255.73 217.624 255.787 217.656L257.95 218.856C257.967 218.865 257.985 218.87 258.003 218.87C258.032 218.87 258.061 218.857 258.086 218.832C258.125 218.792 258.149 218.727 258.149 218.656V209.156C258.149 209.044 258.089 208.95 258.013 208.943L255.85 208.729C255.809 208.726 255.769 208.745 255.74 208.786C255.71 208.827 255.694 208.883 255.694 208.942V217.457H255.693V217.456ZM255.068 205.589C255.068 205.648 255.085 205.705 255.114 205.744C255.142 205.782 255.178 205.803 255.215 205.803C255.217 205.803 255.221 205.803 255.223 205.802L256.518 205.694C256.595 205.687 256.656 205.594 256.656 205.48V201.953C256.656 201.889 256.637 201.829 256.603 201.789C256.569 201.747 256.525 201.731 256.482 201.742L255.189 202.086C255.118 202.105 255.067 202.193 255.067 202.297V205.589H255.068ZM255.068 199.007C255.068 199.074 255.09 199.138 255.128 199.179C255.153 199.206 255.184 199.221 255.215 199.221C255.229 199.221 255.244 199.218 255.258 199.211L256.552 198.631C256.613 198.605 256.655 198.521 256.655 198.427V194.899C256.655 194.827 256.631 194.76 256.589 194.72C256.548 194.681 256.496 194.674 256.45 194.702L255.156 195.519C255.102 195.552 255.068 195.629 255.068 195.715V199.007H255.068V199.007ZM252.482 211.445C252.482 211.548 252.532 211.636 252.601 211.655L253.541 211.92C253.551 211.923 253.559 211.924 253.569 211.924C253.602 211.924 253.636 211.907 253.662 211.875C253.696 211.834 253.716 211.773 253.716 211.71V208.718C253.716 208.606 253.656 208.513 253.579 208.505L252.639 208.412C252.597 208.408 252.558 208.429 252.528 208.469C252.498 208.51 252.482 208.566 252.482 208.625V211.445ZM252.482 205.806C252.482 205.865 252.498 205.922 252.528 205.961C252.555 205.998 252.591 206.019 252.629 206.019C252.632 206.019 252.635 206.019 252.637 206.019L253.577 205.94C253.655 205.933 253.716 205.84 253.716 205.726V202.735C253.716 202.672 253.697 202.611 253.663 202.571C253.629 202.53 253.585 202.513 253.542 202.524L252.603 202.774C252.533 202.792 252.482 202.881 252.482 202.984V205.806H252.482ZM250.892 210.999C250.892 211.101 250.942 211.189 251.011 211.209L251.763 211.421C251.773 211.423 251.782 211.425 251.79 211.425C251.825 211.425 251.857 211.408 251.884 211.376C251.918 211.335 251.938 211.275 251.938 211.211V208.544C251.938 208.432 251.878 208.338 251.801 208.331L251.049 208.257C251.008 208.253 250.969 208.273 250.939 208.314C250.909 208.354 250.892 208.411 250.892 208.47V210.999H250.892ZM250.892 205.939C250.892 205.998 250.909 206.054 250.938 206.094C250.966 206.131 251.002 206.152 251.039 206.152C251.042 206.152 251.044 206.152 251.048 206.152L251.799 206.089C251.877 206.082 251.938 205.989 251.938 205.875V203.242C251.938 203.179 251.919 203.121 251.887 203.08C251.854 203.039 251.811 203.021 251.769 203.031L251.017 203.197C250.945 203.214 250.892 203.303 250.892 203.409V205.939H250.892Z" fill="white"/>
<path d="M435.539 410.94L399.87 640.008C399.453 642.69 398.341 645.214 396.527 647.233C356.205 692.091 265.812 720.353 221.502 729.441C219.64 729.824 217.788 729.83 215.923 729.459C173.521 721.025 84.2188 693.611 44.0746 647.14C42.3776 645.175 41.3291 642.759 40.9148 640.196L10.4822 451.957C6.24859 433.132 3.0489 413.532 1 393.305L10.4822 451.957C40.8495 586.984 124.413 682.09 218.045 682.09C315.183 682.09 402.763 601.167 435.539 410.94L439.5 385.5C438.286 394.188 436.964 402.668 435.539 410.94Z" fill="url(#paint2_angular)"/>
<path d="M435.539 410.94L399.87 640.008C399.453 642.69 398.341 645.214 396.527 647.233C356.205 692.091 265.812 720.353 221.502 729.441C219.64 729.824 217.788 729.83 215.923 729.459C173.521 721.025 84.2188 693.611 44.0746 647.14C42.3776 645.175 41.3291 642.759 40.9148 640.196L10.4822 451.957C6.24859 433.132 3.0489 413.532 1 393.305L10.4822 451.957C40.8495 586.984 124.413 682.09 218.045 682.09C315.183 682.09 402.763 601.167 435.539 410.94L439.5 385.5C438.286 394.188 436.964 402.668 435.539 410.94Z" fill="url(#paint3_angular)"/>
<path d="M435.539 410.94L399.87 640.008C399.453 642.69 398.341 645.214 396.527 647.233C356.205 692.091 265.812 720.353 221.502 729.441C219.64 729.824 217.788 729.83 215.923 729.459C173.521 721.025 84.2188 693.611 44.0746 647.14C42.3776 645.175 41.3291 642.759 40.9148 640.196L10.4822 451.957C6.24859 433.132 3.0489 413.532 1 393.305L10.4822 451.957C40.8495 586.984 124.413 682.09 218.045 682.09C315.183 682.09 402.763 601.167 435.539 410.94L439.5 385.5C438.286 394.188 436.964 402.668 435.539 410.94Z" fill="url(#paint4_angular)"/>
<path d="M435.539 410.94L399.87 640.008C399.453 642.69 398.341 645.214 396.527 647.233C356.205 692.091 265.812 720.353 221.502 729.441C219.64 729.824 217.788 729.83 215.923 729.459C173.521 721.025 84.2188 693.611 44.0746 647.14C42.3776 645.175 41.3291 642.759 40.9148 640.196L10.4822 451.957C6.24859 433.132 3.0489 413.532 1 393.305L10.4822 451.957C40.8495 586.984 124.413 682.09 218.045 682.09C315.183 682.09 402.763 601.167 435.539 410.94L439.5 385.5C438.286 394.188 436.964 402.668 435.539 410.94Z" fill="url(#paint5_angular)"/>
<path d="M218.045 682.09C319.407 682.09 410.363 593.975 439.5 385.5L399.87 640.008C399.453 642.69 398.341 645.214 396.527 647.233C356.205 692.091 265.812 720.353 221.502 729.441C219.64 729.824 217.788 729.83 215.923 729.459C173.521 721.025 84.2188 693.611 44.0746 647.14C42.3776 645.175 41.3291 642.759 40.9148 640.196L1 393.305C17.7456 558.617 111.36 682.09 218.045 682.09Z" stroke="white" stroke-width="0.1"/>
<path d="M371.256 65.2943L387.452 61.1472L398.568 69.0224L386.719 84.8981C374.708 74.2947 361.619 65.0057 347.357 56.9383L359.159 41.1012L370.275 48.9764L371.256 65.2943ZM371.256 65.2943L370.303 65.5382M371.256 65.2943L371.314 66.2542" stroke="#4E2639" stroke-width="3"/>
<g clip-path="url(#clip1)">
<path d="M132.639 435.032L118.44 430.478C118.438 430.477 118.437 430.477 118.434 430.477H118.435C118.435 430.477 118.209 430.392 117.89 430.424C117.571 430.458 117.345 430.619 117.345 430.619L109.386 435.694C109.026 435.923 108.809 436.314 108.809 436.736V450.636L108.368 450.604V428.151C108.368 427.612 108.014 427.136 107.492 426.968L81.7525 418.714C81.7525 418.714 81.4552 418.622 81.1799 418.665C80.8497 418.717 80.609 418.888 80.609 418.888L61.7941 431.987C61.4576 432.221 61.2578 432.597 61.2578 433.001V479.503C61.2578 479.958 61.5126 480.375 61.9199 480.593L80.7411 490.662C80.7411 490.662 80.9361 490.774 81.2035 490.807C81.4709 490.837 81.666 490.78 81.666 490.78L107.406 484.436L118.355 481.739L132.551 478.24C133.115 478.101 133.512 477.604 133.512 477.034L133.515 436.216C133.517 435.675 133.161 435.199 132.639 435.032ZM65.0985 473.629C65.0985 473.764 65.0309 473.892 64.9176 473.968C64.8452 474.018 64.7603 474.044 64.6753 474.044C64.625 474.044 64.5763 474.036 64.5274 474.018L63.4281 473.623C63.2614 473.563 63.1496 473.407 63.1496 473.233V469.82C63.1496 469.691 63.2126 469.568 63.3163 469.49C63.4216 469.41 63.56 469.386 63.6875 469.419L64.7869 469.717C64.9693 469.768 65.0968 469.932 65.0968 470.118V473.629H65.0985V473.629ZM65.0985 466.608C65.0985 466.731 65.0433 466.847 64.9443 466.927C64.8672 466.989 64.7729 467.023 64.6738 467.023C64.6471 467.023 64.6219 467.02 64.5952 467.015L63.4958 466.814C63.2944 466.777 63.1482 466.605 63.1482 466.405V462.991C63.1482 462.874 63.1986 462.763 63.2881 462.684C63.3778 462.605 63.4958 462.567 63.6153 462.579L64.7147 462.684C64.9317 462.705 65.0969 462.883 65.0969 463.097V466.608H65.0985ZM65.0985 459.588C65.0985 459.699 65.0544 459.806 64.9742 459.883C64.894 459.96 64.787 460.003 64.6755 460.003C64.6739 460.003 64.6724 460.003 64.6724 460.003L63.573 459.995C63.3402 459.992 63.15 459.808 63.15 459.579V456.166C63.15 455.95 63.3199 455.77 63.5401 455.753L64.6395 455.664C64.759 455.653 64.8739 455.693 64.9619 455.771C65.05 455.851 65.0987 455.96 65.0987 456.077V459.588H65.0985ZM65.0985 452.569C65.0985 452.77 64.949 452.942 64.7461 452.977L63.6468 453.163C63.6216 453.168 63.5981 453.169 63.5744 453.169C63.4738 453.169 63.3778 453.135 63.3009 453.072C63.2049 452.992 63.1482 452.877 63.1482 452.753V449.34C63.1482 449.151 63.2788 448.988 63.4643 448.939L64.5637 448.655C64.6926 448.623 64.8279 448.651 64.9317 448.729C65.0355 448.807 65.0953 448.928 65.0953 449.057V452.569H65.0985ZM65.0985 445.549C65.0985 445.724 64.9853 445.882 64.8154 445.941L63.716 446.32C63.6705 446.335 63.6232 446.343 63.5744 446.343C63.4864 446.343 63.4015 446.317 63.3291 446.268C63.2175 446.189 63.1497 446.063 63.1497 445.928V442.514C63.1497 442.351 63.2488 442.202 63.403 442.135L64.5024 441.659C64.6329 441.602 64.7855 441.614 64.9066 441.691C65.0261 441.769 65.0985 441.9 65.0985 442.039V445.549ZM65.0985 438.529C65.0985 438.684 65.012 438.823 64.8736 438.896L63.7742 439.468C63.7113 439.5 63.6421 439.517 63.5744 439.517C63.4973 439.517 63.4219 439.495 63.3543 439.457C63.2268 439.382 63.1482 439.248 63.1482 439.102V435.689C63.1482 435.545 63.2236 435.411 63.348 435.337L64.4474 434.668C64.5795 434.588 64.7431 434.584 64.8784 434.657C65.0137 434.731 65.0971 434.869 65.0971 435.02V438.529H65.0985ZM68.8055 474.96C68.8055 475.095 68.7379 475.223 68.6246 475.3C68.5522 475.349 68.4658 475.375 68.3808 475.375C68.3321 475.375 68.2833 475.367 68.2345 475.349L66.9244 474.877C66.7577 474.817 66.6459 474.662 66.6459 474.489V470.767C66.6459 470.638 66.7073 470.517 66.8126 470.437C66.9179 470.359 67.0548 470.334 67.1838 470.368L68.4924 470.724C68.6764 470.773 68.8037 470.938 68.8037 471.123V474.96H68.8055ZM68.8055 467.288C68.8055 467.411 68.749 467.528 68.6513 467.607C68.5742 467.669 68.4784 467.703 68.3793 467.703C68.3526 467.703 68.3274 467.7 68.3006 467.695L66.9921 467.455C66.7907 467.419 66.6445 467.247 66.6445 467.047V463.327C66.6445 463.21 66.6949 463.098 66.7844 463.02C66.8757 462.942 66.9936 462.903 67.1116 462.914L68.4217 463.038C68.6404 463.06 68.8055 463.238 68.8055 463.453V467.288ZM68.8055 459.617C68.8055 459.726 68.7614 459.834 68.6797 459.911C68.5994 459.987 68.4925 460.03 68.3808 460.03C68.3808 460.03 68.3793 460.03 68.3777 460.03L67.0692 460.021C66.8363 460.02 66.6462 459.834 66.6462 459.605V455.887C66.6462 455.67 66.8145 455.491 67.0363 455.472L68.3464 455.368C68.4643 455.357 68.5808 455.397 68.6688 455.475C68.7568 455.553 68.8056 455.664 68.8056 455.779V459.617H68.8055ZM68.8055 451.944C68.8055 452.147 68.6561 452.318 68.4532 452.354L67.1431 452.573C67.1179 452.578 67.0942 452.579 67.0707 452.579C66.9716 452.579 66.8741 452.544 66.7955 452.481C66.6995 452.401 66.6445 452.286 66.6445 452.163V448.443C66.6445 448.254 66.775 448.09 66.9606 448.041L68.2707 447.705C68.398 447.672 68.5349 447.698 68.6372 447.778C68.741 447.857 68.8023 447.978 68.8023 448.107V451.944H68.8055V451.944ZM68.8055 444.272C68.8055 444.448 68.6923 444.605 68.5209 444.663L67.2123 445.115C67.1667 445.132 67.118 445.139 67.0707 445.139C66.9827 445.139 66.8978 445.113 66.8254 445.062C66.7122 444.984 66.646 444.858 66.646 444.723V441.003C66.646 440.84 66.7436 440.69 66.8993 440.624L68.2079 440.057C68.34 440.002 68.4926 440.013 68.6121 440.088C68.7332 440.165 68.8055 440.297 68.8055 440.436V444.272ZM68.8055 436.601C68.8055 436.755 68.719 436.894 68.5806 436.967L67.2721 437.648C67.2091 437.681 67.14 437.696 67.0724 437.696C66.9953 437.696 66.9197 437.676 66.8521 437.637C66.7248 437.562 66.646 437.427 66.646 437.283V433.563C66.646 433.42 66.7216 433.286 66.8458 433.21L68.156 432.413C68.2881 432.333 68.4516 432.328 68.5869 432.402C68.7221 432.476 68.8055 432.614 68.8055 432.764V436.601ZM73.2722 476.563C73.2722 476.7 73.2046 476.827 73.0913 476.904C73.0189 476.953 72.9324 476.979 72.849 476.979C72.7987 476.979 72.75 476.97 72.7011 476.953L71.1143 476.384C70.9476 476.324 70.8358 476.167 70.8358 475.994V471.905C70.8358 471.776 70.8972 471.653 71.0025 471.575C71.1063 471.497 71.2447 471.472 71.372 471.506L72.9604 471.936C73.1429 471.985 73.2704 472.149 73.2704 472.335V476.563H73.2722V476.563ZM73.2722 468.106C73.2722 468.229 73.2155 468.346 73.118 468.426C73.0409 468.487 72.945 468.521 72.8475 468.521C72.8208 468.521 72.794 468.518 72.7689 468.513L71.1804 468.223C70.979 468.186 70.8343 468.014 70.8343 467.815V463.726C70.8343 463.609 70.8846 463.497 70.9727 463.419C71.0623 463.341 71.1818 463.302 71.2998 463.313L72.8867 463.465C73.1054 463.487 73.2705 463.665 73.2705 463.88V468.106H73.2722ZM73.2722 459.648C73.2722 459.759 73.2281 459.866 73.1464 459.943C73.0677 460.02 72.9592 460.063 72.8492 460.063C72.8475 460.063 72.846 460.063 72.8444 460.063L71.2575 460.05C71.0247 460.049 70.8376 459.865 70.8376 459.636V455.544C70.8376 455.329 71.0059 455.149 71.226 455.133L72.8145 455.005C72.9324 454.994 73.0488 455.034 73.1369 455.113C73.225 455.191 73.2737 455.302 73.2737 455.417V459.648H73.2722V459.648ZM73.2722 451.192C73.2722 451.393 73.1227 451.566 72.9198 451.6L71.3313 451.869C71.3076 451.873 71.2841 451.875 71.2589 451.875C71.1599 451.875 71.0623 451.841 70.9854 451.778C70.8894 451.698 70.8344 451.583 70.8344 451.46V447.372C70.8344 447.183 70.9634 447.02 71.1505 446.971L72.7374 446.563C72.8647 446.53 73.0016 446.556 73.1038 446.636C73.2077 446.714 73.2705 446.836 73.2705 446.965V451.192H73.2722ZM73.2722 442.733C73.2722 442.91 73.159 443.066 72.9891 443.125L71.4005 443.671C71.3549 443.687 71.3078 443.696 71.2589 443.696C71.1725 443.696 71.0875 443.668 71.0136 443.619C70.902 443.541 70.8359 443.415 70.8359 443.28V439.191C70.8359 439.025 70.9335 438.878 71.0875 438.812L72.6744 438.126C72.8065 438.069 72.959 438.081 73.0787 438.157C73.1998 438.233 73.2722 438.365 73.2722 438.505V442.733ZM73.2722 434.277C73.2722 434.43 73.1857 434.57 73.0473 434.642L71.4589 435.468C71.3959 435.5 71.3283 435.515 71.2591 435.515C71.1836 435.515 71.1065 435.496 71.0405 435.457C70.913 435.382 70.8344 435.247 70.8344 435.103V431.012C70.8344 430.87 70.9098 430.736 71.0342 430.661L72.6211 429.695C72.7547 429.617 72.9183 429.612 73.0536 429.686C73.1889 429.758 73.2723 429.898 73.2723 430.048V434.277H73.2722ZM78.7579 478.533C78.7579 478.67 78.6903 478.797 78.577 478.874C78.5031 478.923 78.4182 478.949 78.3333 478.949C78.2846 478.949 78.2357 478.94 78.187 478.923L76.2242 478.218C76.0575 478.158 75.9457 478.002 75.9457 477.828V473.29C75.9457 473.161 76.0071 473.04 76.1125 472.96C76.2179 472.881 76.3547 472.857 76.4821 472.891L78.4449 473.423C78.6289 473.473 78.7563 473.637 78.7563 473.823V478.533H78.7579V478.533ZM78.7579 469.111C78.7579 469.235 78.7014 469.352 78.6039 469.43C78.5268 469.493 78.4308 469.525 78.3317 469.525C78.305 469.525 78.2798 469.522 78.2531 469.517L76.2902 469.158C76.0905 469.123 75.9442 468.951 75.9442 468.75V464.213C75.9442 464.096 75.9946 463.984 76.0841 463.906C76.1723 463.826 76.2918 463.789 76.4097 463.8L78.3726 463.987C78.5911 464.009 78.7563 464.187 78.7563 464.4V469.111H78.7579ZM78.7579 459.69C78.7579 459.8 78.7139 459.908 78.6321 459.985C78.5518 460.061 78.4449 460.104 78.3333 460.104C78.3333 460.104 78.3317 460.104 78.3302 460.104L76.3674 460.089C76.1346 460.087 75.9459 459.903 75.9459 459.674V455.134C75.9459 454.918 76.1142 454.738 76.336 454.72L78.2971 454.563C78.4183 454.553 78.5331 454.591 78.6211 454.671C78.7076 454.749 78.7579 454.859 78.7579 454.975V459.69ZM78.7579 450.266C78.7579 450.468 78.6085 450.64 78.4041 450.676L76.4429 451.006C76.4177 451.01 76.3942 451.012 76.369 451.012C76.2715 451.012 76.1724 450.98 76.0953 450.915C75.9993 450.837 75.9443 450.72 75.9443 450.599V446.06C75.9443 445.872 76.0733 445.707 76.2604 445.658L78.2231 445.156C78.3506 445.124 78.4858 445.15 78.5896 445.228C78.6934 445.308 78.7563 445.428 78.7563 445.557V450.266H78.7579ZM78.7579 440.845C78.7579 441.02 78.6447 441.178 78.4733 441.236L76.5106 441.912C76.465 441.927 76.4163 441.936 76.369 441.936C76.2825 441.936 76.1976 441.909 76.1252 441.86C76.012 441.781 75.9459 441.655 75.9459 441.52V436.982C75.9459 436.819 76.0434 436.669 76.1974 436.603L78.1603 435.754C78.2924 435.697 78.4449 435.709 78.5645 435.784C78.6856 435.861 78.7579 435.993 78.7579 436.133V440.845ZM78.7579 431.422C78.7579 431.576 78.6714 431.716 78.5315 431.788L76.5687 432.809C76.5074 432.841 76.4381 432.858 76.369 432.858C76.2934 432.858 76.218 432.838 76.1503 432.798C76.0229 432.723 75.9442 432.588 75.9442 432.443V427.903C75.9442 427.761 76.0197 427.627 76.144 427.55L78.1067 426.357C78.2373 426.278 78.4039 426.273 78.5377 426.347C78.6713 426.42 78.7563 426.559 78.7563 426.709V431.423H78.7579V431.422ZM89.1837 478.393C89.1837 478.596 89.0327 478.768 88.8283 478.803L84.2988 479.553C84.2736 479.556 84.2516 479.559 84.228 479.559C84.1289 479.559 84.0299 479.525 83.9528 479.461C83.8568 479.382 83.8018 479.267 83.8018 479.144V474.283C83.8018 474.075 83.9606 473.899 84.1713 473.873L88.7024 473.308C88.8219 473.291 88.9446 473.33 89.0374 473.407C89.1301 473.486 89.1821 473.598 89.1821 473.718V478.393H89.1837ZM89.1837 469.04C89.1837 469.255 89.0154 469.435 88.7953 469.451L84.2642 469.834C84.2516 469.835 84.239 469.835 84.228 469.835C84.1226 469.835 84.0188 469.799 83.9402 469.728C83.852 469.648 83.8018 469.537 83.8018 469.422V464.6C83.8018 464.377 83.9795 464.194 84.2076 464.185L88.7387 463.984C88.8567 463.978 88.9667 464.019 89.0501 464.098C89.135 464.176 89.1822 464.285 89.1822 464.397V469.04H89.1837ZM89.1837 459.687C89.1837 459.915 88.9934 460.101 88.7591 460.103L84.2295 460.118C84.228 460.118 84.228 460.118 84.228 460.118C84.1148 460.118 84.0062 460.075 83.9276 459.997C83.8474 459.92 83.8033 459.814 83.8033 459.705V454.842C83.8033 454.73 83.8505 454.623 83.9339 454.545C84.0173 454.466 84.1289 454.425 84.2438 454.429L88.7749 454.597C89.0029 454.604 89.1838 454.787 89.1838 455.01V459.687H89.1837ZM89.1837 450.332C89.1837 450.447 89.135 450.559 89.0469 450.636C88.9666 450.706 88.8644 450.746 88.7575 450.746C88.7465 450.746 88.7355 450.745 88.7245 450.745L84.195 450.393C83.9732 450.376 83.8033 450.197 83.8033 449.979V445.119C83.8033 445.001 83.8552 444.887 83.9465 444.809C84.0377 444.729 84.1587 444.692 84.2799 444.708L88.8094 445.243C89.0234 445.27 89.1837 445.446 89.1837 445.655V450.332ZM89.1837 440.978C89.1837 441.101 89.1286 441.216 89.0327 441.295C88.9556 441.359 88.8582 441.394 88.7575 441.394C88.7339 441.394 88.7134 441.393 88.6899 441.39L84.1587 440.67C83.9526 440.637 83.8018 440.464 83.8018 440.26V435.4C83.8018 435.274 83.8583 435.158 83.9591 435.078C84.0566 435 84.1855 434.969 84.3129 434.992L88.8424 435.895C89.0406 435.935 89.1837 436.105 89.1837 436.302V440.978ZM89.1837 431.625C89.1837 431.752 89.124 431.872 89.0201 431.952C88.9447 432.009 88.8503 432.041 88.7575 432.041C88.7245 432.041 88.6899 432.036 88.6568 432.029L84.1273 430.943C83.937 430.897 83.8033 430.73 83.8033 430.54V425.677C83.8033 425.546 83.8663 425.425 83.9717 425.345C84.0787 425.267 84.2154 425.243 84.3444 425.278L88.8739 426.548C89.0563 426.598 89.1822 426.761 89.1822 426.947V431.625H89.1837ZM97.2897 477.053C97.2897 477.255 97.1387 477.427 96.9343 477.463L93.0291 478.109C93.0055 478.112 92.982 478.114 92.9583 478.114C92.8593 478.114 92.7617 478.081 92.6846 478.017C92.5887 477.939 92.5321 477.822 92.5321 477.701V473.193C92.5321 472.984 92.6909 472.808 92.9032 472.782L96.8084 472.293C96.9294 472.278 97.0506 472.316 97.1433 472.393C97.2346 472.473 97.288 472.585 97.288 472.705V477.053H97.2897ZM97.2897 468.357C97.2897 468.572 97.1214 468.751 96.9013 468.768L92.9961 469.098C92.9835 469.1 92.9709 469.1 92.9599 469.1C92.8545 469.1 92.7507 469.061 92.672 468.991C92.5839 468.913 92.5337 468.802 92.5337 468.685V464.181C92.5337 463.958 92.7129 463.775 92.941 463.764L96.8461 463.594C96.9593 463.586 97.0758 463.629 97.1575 463.708C97.2424 463.788 97.2896 463.895 97.2896 464.007V468.357H97.2897ZM97.2897 459.659C97.2897 459.886 97.0994 460.074 96.865 460.075L92.9599 460.087H92.9583C92.8467 460.087 92.7381 460.046 92.6579 459.968C92.5777 459.889 92.5321 459.783 92.5321 459.674V455.165C92.5321 455.053 92.5793 454.944 92.6627 454.867C92.7461 454.789 92.8593 454.746 92.9741 454.752L96.8776 454.896C97.1072 454.905 97.2882 455.088 97.2882 455.312V459.659H97.2897V459.659ZM97.2897 450.961C97.2897 451.076 97.2393 451.187 97.1529 451.265C97.0725 451.336 96.9704 451.374 96.8635 451.374C96.8526 451.374 96.8398 451.374 96.8289 451.373L92.9238 451.07C92.702 451.053 92.5322 450.874 92.5322 450.656V446.153C92.5322 446.033 92.5842 445.921 92.6769 445.842C92.7682 445.762 92.8877 445.726 93.0088 445.741L96.914 446.203C97.1279 446.229 97.2883 446.404 97.2883 446.615V450.961H97.2897V450.961ZM97.2897 442.263C97.2897 442.385 97.2346 442.5 97.1387 442.58C97.0616 442.644 96.9642 442.678 96.8635 442.678C96.8398 442.678 96.818 442.677 96.7959 442.672L92.8907 442.053C92.6846 442.021 92.5321 441.846 92.5321 441.643V437.135C92.5321 437.011 92.5903 436.893 92.6894 436.814C92.7869 436.736 92.919 436.704 93.0433 436.728L96.9484 437.507C97.1466 437.545 97.2897 437.716 97.2897 437.914V442.263ZM97.2897 433.567C97.2897 433.695 97.23 433.815 97.1277 433.893C97.0506 433.951 96.9578 433.982 96.865 433.982C96.8303 433.982 96.7974 433.979 96.7628 433.97L92.8576 433.035C92.6673 432.99 92.5337 432.823 92.5337 432.631V428.124C92.5337 427.994 92.5965 427.871 92.7035 427.793C92.8089 427.715 92.9473 427.69 93.0747 427.725L96.9799 428.82C97.1622 428.871 97.2882 429.033 97.2882 429.219V433.567H97.2897ZM104.332 475.888C104.332 476.09 104.183 476.262 103.979 476.298L100.577 476.859C100.552 476.864 100.53 476.866 100.504 476.866C100.407 476.866 100.308 476.832 100.231 476.769C100.135 476.689 100.08 476.574 100.08 476.451V472.25C100.08 472.042 100.239 471.867 100.449 471.839L103.851 471.415C103.972 471.4 104.094 471.437 104.186 471.513C104.279 471.593 104.331 471.707 104.331 471.825V475.888H104.332V475.888ZM104.332 467.761C104.332 467.978 104.164 468.156 103.944 468.174L100.542 468.461C100.53 468.463 100.517 468.463 100.504 468.463C100.399 468.463 100.297 468.424 100.217 468.354C100.128 468.275 100.08 468.165 100.08 468.05V463.849C100.08 463.628 100.258 463.444 100.486 463.434L103.888 463.285C104.002 463.279 104.117 463.321 104.199 463.399C104.284 463.477 104.331 463.586 104.331 463.698V467.761H104.332ZM104.332 459.634C104.332 459.863 104.144 460.047 103.908 460.05L100.506 460.061C100.506 460.061 100.506 460.061 100.504 460.061C100.393 460.061 100.284 460.018 100.205 459.941C100.125 459.863 100.081 459.757 100.081 459.648V455.446C100.081 455.334 100.127 455.225 100.212 455.148C100.295 455.07 100.405 455.028 100.522 455.033L103.924 455.159C104.15 455.167 104.332 455.351 104.332 455.572V459.634ZM104.332 451.508C104.332 451.623 104.284 451.735 104.196 451.813C104.117 451.884 104.015 451.922 103.906 451.922C103.895 451.922 103.884 451.922 103.873 451.921L100.471 451.657C100.251 451.638 100.081 451.459 100.081 451.244V447.043C100.081 446.925 100.133 446.813 100.224 446.733C100.316 446.655 100.437 446.618 100.558 446.633L103.958 447.035C104.172 447.06 104.332 447.237 104.332 447.447V451.508ZM104.332 443.381C104.332 443.504 104.277 443.619 104.183 443.697C104.105 443.762 104.007 443.796 103.906 443.796C103.884 443.796 103.862 443.794 103.839 443.79L100.437 443.249C100.231 443.217 100.08 443.043 100.08 442.839V438.64C100.08 438.514 100.136 438.397 100.236 438.317C100.336 438.239 100.465 438.208 100.591 438.233L103.993 438.909C104.19 438.949 104.333 439.119 104.333 439.316V443.381H104.332ZM104.332 435.255C104.332 435.382 104.273 435.503 104.169 435.582C104.094 435.64 104.002 435.671 103.906 435.671C103.873 435.671 103.839 435.666 103.806 435.658L100.404 434.843C100.215 434.798 100.081 434.631 100.081 434.441V430.239C100.081 430.108 100.144 429.985 100.25 429.907C100.355 429.83 100.493 429.804 100.622 429.839L104.024 430.794C104.205 430.845 104.331 431.008 104.331 431.194V435.255H104.332ZM118.467 480.532C118.467 480.722 118.335 480.887 118.146 480.934L107.196 483.633C107.163 483.641 107.127 483.646 107.094 483.646C107 483.646 106.909 483.615 106.833 483.558C106.729 483.478 106.67 483.359 106.67 483.23V459.625C106.67 459.584 106.736 455.268 112.917 455.495C118.405 455.695 118.468 459.548 118.468 459.588V480.532H118.467ZM123.066 472.791C123.066 472.993 122.914 473.165 122.712 473.199L120.477 473.569C120.452 473.574 120.43 473.575 120.405 473.575C120.306 473.575 120.208 473.542 120.131 473.479C120.035 473.397 119.98 473.282 119.98 473.159V469.765C119.98 469.556 120.138 469.379 120.349 469.353L122.586 469.072C122.707 469.057 122.828 469.095 122.921 469.172C123.012 469.252 123.065 469.364 123.065 469.484V472.791H123.066ZM123.066 466.181C123.066 466.396 122.897 466.576 122.677 466.593L120.441 466.781C120.428 466.783 120.415 466.783 120.405 466.783C120.299 466.783 120.197 466.745 120.117 466.676C120.029 466.596 119.98 466.485 119.98 466.37V462.974C119.98 462.753 120.158 462.57 120.386 462.561L122.622 462.463C122.737 462.455 122.852 462.498 122.934 462.576C123.019 462.654 123.066 462.762 123.066 462.876V466.181H123.066ZM123.066 459.545C123.066 459.774 122.875 459.96 122.642 459.96L120.406 459.968C120.406 459.968 120.406 459.968 120.405 459.968C120.293 459.968 120.184 459.925 120.106 459.846C120.025 459.768 119.981 459.664 119.981 459.553V456.186C119.981 456.074 120.027 455.966 120.11 455.887C120.194 455.808 120.306 455.767 120.422 455.771L122.657 455.856C122.885 455.864 123.067 456.046 123.067 456.271V459.545H123.066ZM123.066 452.962C123.066 453.077 123.015 453.189 122.929 453.266C122.849 453.338 122.746 453.376 122.639 453.376C122.628 453.376 122.616 453.375 122.606 453.375L120.37 453.201C120.15 453.184 119.98 453.005 119.98 452.787V449.392C119.98 449.274 120.032 449.162 120.123 449.082C120.214 449.004 120.335 448.965 120.455 448.982L122.691 449.246C122.905 449.271 123.066 449.447 123.066 449.658V452.962ZM123.066 446.354C123.066 446.475 123.011 446.59 122.914 446.67C122.837 446.734 122.74 446.768 122.639 446.768C122.616 446.768 122.594 446.767 122.572 446.762L120.335 446.409C120.129 446.377 119.978 446.202 119.978 445.999V442.603C119.978 442.478 120.035 442.362 120.134 442.282C120.233 442.204 120.364 442.173 120.49 442.196L122.724 442.641C122.923 442.681 123.066 442.852 123.066 443.048V446.354H123.066ZM123.066 439.744C123.066 439.871 123.006 439.993 122.904 440.071C122.827 440.129 122.735 440.16 122.641 440.16C122.608 440.16 122.573 440.157 122.54 440.148L120.302 439.612C120.113 439.566 119.98 439.398 119.98 439.208V435.813C119.98 435.683 120.041 435.56 120.15 435.482C120.255 435.404 120.393 435.379 120.522 435.414L122.757 436.041C122.94 436.091 123.065 436.254 123.065 436.44V439.744H123.066ZM127.197 472.106C127.197 472.309 127.046 472.481 126.842 472.514L124.83 472.849C124.807 472.852 124.783 472.854 124.759 472.854C124.66 472.854 124.563 472.822 124.484 472.757C124.388 472.679 124.333 472.562 124.333 472.441V469.221C124.333 469.012 124.493 468.836 124.704 468.81L126.716 468.558C126.837 468.543 126.958 468.579 127.051 468.659C127.144 468.738 127.195 468.851 127.195 468.969V472.106H127.197V472.106ZM127.197 465.833C127.197 466.049 127.029 466.227 126.809 466.247L124.797 466.416C124.785 466.418 124.772 466.418 124.761 466.418C124.656 466.418 124.552 466.379 124.473 466.309C124.385 466.23 124.335 466.12 124.335 466.003V462.785C124.335 462.562 124.514 462.38 124.742 462.37L126.754 462.281C126.869 462.275 126.983 462.317 127.065 462.395C127.15 462.473 127.197 462.581 127.197 462.694V465.833H127.197ZM127.197 459.559C127.197 459.787 127.007 459.974 126.772 459.974L124.761 459.982H124.759C124.648 459.982 124.539 459.939 124.461 459.86C124.38 459.782 124.335 459.677 124.335 459.567V456.347C124.335 456.232 124.382 456.125 124.465 456.046C124.549 455.968 124.661 455.927 124.775 455.931L126.788 456.007C127.016 456.016 127.197 456.199 127.197 456.421V459.559H127.197ZM127.197 453.283C127.197 453.398 127.148 453.51 127.06 453.587C126.982 453.659 126.878 453.697 126.771 453.697C126.76 453.697 126.749 453.696 126.738 453.696L124.726 453.541C124.505 453.522 124.335 453.343 124.335 453.126V449.906C124.335 449.788 124.387 449.676 124.479 449.596C124.571 449.518 124.692 449.481 124.811 449.497L126.823 449.733C127.037 449.759 127.197 449.936 127.197 450.144V453.283ZM127.197 447.008C127.197 447.131 127.142 447.246 127.046 447.324C126.969 447.388 126.872 447.424 126.771 447.424C126.747 447.424 126.727 447.422 126.703 447.419L124.692 447.1C124.486 447.067 124.333 446.892 124.333 446.69V443.47C124.333 443.346 124.391 443.228 124.491 443.149C124.588 443.069 124.719 443.039 124.844 443.063L126.856 443.464C127.054 443.502 127.197 443.674 127.197 443.871V447.008ZM127.197 440.734C127.197 440.862 127.137 440.982 127.034 441.061C126.958 441.118 126.865 441.149 126.771 441.149C126.738 441.149 126.703 441.146 126.669 441.137L124.659 440.656C124.468 440.611 124.335 440.444 124.335 440.252V437.034C124.335 436.904 124.398 436.781 124.505 436.702C124.61 436.622 124.748 436.599 124.876 436.635L126.887 437.198C127.07 437.249 127.196 437.412 127.196 437.597V440.734H127.197V440.734ZM130.931 471.489C130.931 471.691 130.78 471.863 130.575 471.899L128.756 472.198C128.731 472.203 128.709 472.204 128.685 472.204C128.584 472.204 128.487 472.172 128.41 472.108C128.314 472.028 128.259 471.913 128.259 471.791V468.731C128.259 468.523 128.417 468.346 128.63 468.32L130.45 468.093C130.571 468.077 130.692 468.114 130.785 468.192C130.877 468.271 130.929 468.384 130.929 468.504V471.489H130.931ZM130.931 465.516C130.931 465.733 130.763 465.911 130.543 465.931L128.721 466.085C128.71 466.086 128.698 466.086 128.687 466.086C128.581 466.086 128.477 466.048 128.399 465.977C128.311 465.899 128.261 465.788 128.261 465.672V462.611C128.261 462.389 128.438 462.206 128.666 462.197L130.488 462.116C130.601 462.109 130.715 462.152 130.799 462.231C130.884 462.309 130.931 462.416 130.931 462.53V465.516ZM130.931 459.545C130.931 459.774 130.741 459.96 130.506 459.961L128.687 459.968C128.685 459.968 128.685 459.968 128.685 459.968C128.573 459.968 128.463 459.924 128.385 459.846C128.304 459.768 128.26 459.663 128.26 459.553V456.495C128.26 456.381 128.308 456.273 128.391 456.194C128.474 456.115 128.584 456.074 128.701 456.078L130.522 456.146C130.75 456.155 130.931 456.338 130.931 456.562V459.545ZM130.931 453.573C130.931 453.69 130.88 453.799 130.794 453.878C130.714 453.949 130.612 453.987 130.505 453.987C130.494 453.987 130.481 453.987 130.472 453.986L128.652 453.845C128.43 453.826 128.261 453.647 128.261 453.43V450.37C128.261 450.252 128.312 450.14 128.404 450.06C128.495 449.982 128.616 449.945 128.737 449.959L130.557 450.173C130.771 450.199 130.931 450.376 130.931 450.585V453.573ZM130.931 447.602C130.931 447.723 130.876 447.838 130.78 447.917C130.703 447.981 130.606 448.015 130.505 448.015C130.481 448.015 130.459 448.013 130.437 448.01L128.616 447.721C128.41 447.689 128.26 447.514 128.26 447.311V444.252C128.26 444.127 128.317 444.01 128.418 443.931C128.517 443.852 128.647 443.822 128.771 443.845L130.591 444.207C130.789 444.245 130.932 444.417 130.932 444.614V447.602H130.931V447.602ZM130.931 441.629C130.931 441.757 130.871 441.877 130.767 441.955C130.692 442.013 130.599 442.044 130.505 442.044C130.472 442.044 130.437 442.041 130.404 442.032L128.585 441.596C128.394 441.551 128.261 441.384 128.261 441.193V438.133C128.261 438.003 128.323 437.88 128.429 437.802C128.536 437.724 128.674 437.699 128.801 437.734L130.621 438.244C130.804 438.295 130.929 438.459 130.929 438.643V441.629H130.931Z" fill="white"/>
</g>
<path d="M154.329 276.671L147.502 274.623V269.657C147.502 269.376 147.338 269.118 147.08 268.994L128.642 260.089C128.642 260.089 128.477 259.999 128.252 260.014C128.028 260.028 127.865 260.149 127.865 260.149L114.718 269.302C114.518 269.441 114.4 269.666 114.4 269.905V295.191C114.4 295.461 114.551 295.71 114.794 295.839L127.941 302.873C127.941 302.873 128.092 302.955 128.259 302.964C128.424 302.974 128.576 302.916 128.576 302.916L147.013 296.073L154.377 293.34C154.671 293.23 154.865 292.955 154.865 292.647V277.379C154.864 277.054 154.648 276.767 154.329 276.671ZM117.578 290.36C117.578 290.437 117.541 290.51 117.479 290.557C117.434 290.59 117.381 290.607 117.326 290.607C117.303 290.607 117.28 290.605 117.258 290.598L115.765 290.194C115.657 290.165 115.581 290.067 115.581 289.956V286.225C115.581 286.156 115.611 286.09 115.664 286.042C115.717 285.996 115.788 285.973 115.858 285.98L117.35 286.122C117.479 286.135 117.578 286.241 117.578 286.368V290.36ZM117.578 282.374C117.578 282.503 117.478 282.609 117.346 282.62L115.853 282.74C115.847 282.741 115.839 282.741 115.834 282.741C115.77 282.741 115.708 282.718 115.661 282.676C115.609 282.63 115.58 282.564 115.58 282.495V278.764C115.58 278.651 115.658 278.554 115.768 278.525L117.26 278.142C117.336 278.123 117.418 278.139 117.479 278.185C117.541 278.233 117.577 278.305 117.577 278.381V282.374H117.578V282.374ZM117.578 274.387C117.578 274.484 117.52 274.572 117.428 274.613L115.936 275.258C115.903 275.272 115.868 275.278 115.834 275.278C115.785 275.278 115.736 275.264 115.696 275.238C115.624 275.193 115.581 275.114 115.581 275.031V271.3C115.581 271.215 115.626 271.135 115.7 271.09L117.191 270.184C117.27 270.135 117.367 270.134 117.448 270.177C117.527 270.22 117.577 270.303 117.577 270.392V274.387H117.578V274.387ZM121.294 291.369C121.294 291.446 121.258 291.518 121.195 291.566C121.151 291.599 121.096 291.616 121.043 291.616C121.02 291.616 120.997 291.613 120.975 291.607L118.976 291.064C118.866 291.035 118.79 290.937 118.79 290.827V286.531C118.79 286.462 118.82 286.395 118.873 286.348C118.927 286.301 118.997 286.279 119.068 286.285L121.068 286.476C121.197 286.489 121.295 286.595 121.295 286.721V291.369H121.294ZM121.294 282.074C121.294 282.203 121.194 282.31 121.063 282.321L119.064 282.482C119.056 282.482 119.049 282.482 119.043 282.482C118.98 282.482 118.918 282.46 118.872 282.418C118.819 282.371 118.789 282.305 118.789 282.237V277.941C118.789 277.829 118.867 277.731 118.978 277.702L120.977 277.189C121.053 277.17 121.134 277.185 121.196 277.233C121.258 277.279 121.294 277.352 121.294 277.428V282.074H121.294ZM121.294 272.779C121.294 272.877 121.236 272.965 121.145 273.005L119.145 273.869C119.112 273.883 119.078 273.89 119.043 273.89C118.994 273.89 118.946 273.876 118.905 273.85C118.834 273.804 118.79 273.726 118.79 273.642V269.347C118.79 269.263 118.836 269.183 118.91 269.138L120.909 267.922C120.987 267.874 121.086 267.871 121.165 267.915C121.246 267.959 121.295 268.041 121.295 268.131V272.779H121.294V272.779ZM126.469 292.771C126.469 292.844 126.44 292.912 126.386 292.964C126.295 293.055 126.169 293.056 126.128 293.056C126.127 293.056 126.127 293.056 126.127 293.056C125.628 293.056 123.694 292.377 123.312 292.24C123.213 292.204 123.145 292.111 123.145 292.007V286.946C123.145 286.877 123.175 286.81 123.229 286.763C123.281 286.716 123.352 286.694 123.422 286.7L126.24 286.969C126.37 286.982 126.469 287.088 126.469 287.216C126.469 287.267 126.467 292.534 126.469 292.771ZM126.469 281.657C126.469 281.786 126.368 281.893 126.237 281.904L123.419 282.131C123.412 282.132 123.405 282.132 123.398 282.132C123.334 282.132 123.273 282.109 123.226 282.067C123.173 282.019 123.144 281.954 123.144 281.885V276.823C123.144 276.711 123.222 276.613 123.332 276.584L126.15 275.862C126.225 275.843 126.307 275.858 126.369 275.905C126.43 275.952 126.468 276.025 126.468 276.1V281.657H126.469V281.657ZM126.469 270.543C126.469 270.641 126.409 270.729 126.318 270.769L123.501 271.986C123.468 272.001 123.434 272.007 123.399 272.007C123.35 272.007 123.303 271.993 123.26 271.967C123.188 271.921 123.145 271.843 123.145 271.759V266.699C123.145 266.614 123.19 266.534 123.264 266.49L126.082 264.776C126.16 264.729 126.257 264.726 126.338 264.77C126.418 264.814 126.469 264.897 126.469 264.985V270.543H126.469ZM137.667 267.772C137.667 267.689 137.71 267.611 137.782 267.565C137.853 267.52 137.943 267.512 138.021 267.545L141.027 268.815C141.121 268.854 141.18 268.944 141.18 269.041V273.425C141.18 273.504 141.143 273.577 141.078 273.624C141.034 273.656 140.981 273.673 140.927 273.673C140.903 273.673 140.878 273.669 140.853 273.661L137.846 272.76C137.74 272.728 137.667 272.632 137.667 272.523V267.772ZM137.667 277.275C137.667 277.202 137.701 277.132 137.759 277.085C137.817 277.038 137.893 277.019 137.967 277.032L140.973 277.566C141.094 277.587 141.181 277.691 141.181 277.81V282.235C141.181 282.302 141.152 282.368 141.101 282.415C141.054 282.458 140.992 282.481 140.927 282.481C140.922 282.481 140.915 282.481 140.91 282.481L137.903 282.272C137.771 282.262 137.668 282.155 137.668 282.025V277.275H137.667V277.275ZM129.839 264.469C129.839 264.386 129.882 264.308 129.953 264.262C130.024 264.217 130.114 264.209 130.193 264.241L134.464 266.045C134.557 266.084 134.616 266.173 134.616 266.271V271.456C134.616 271.534 134.579 271.608 134.514 271.654C134.47 271.686 134.417 271.703 134.365 271.703C134.339 271.703 134.314 271.699 134.29 271.692L130.019 270.411C129.913 270.379 129.84 270.283 129.84 270.175V264.469H129.839ZM129.839 281.588V275.881C129.839 275.808 129.873 275.739 129.931 275.692C129.989 275.644 130.065 275.625 130.139 275.638L134.41 276.398C134.53 276.419 134.617 276.522 134.617 276.642V281.826C134.617 281.894 134.589 281.96 134.538 282.005C134.491 282.049 134.429 282.072 134.365 282.072C134.36 282.072 134.355 282.072 134.35 282.072L130.079 281.833C129.944 281.827 129.839 281.719 129.839 281.588ZM138.174 298.655C138.174 298.758 138.109 298.849 138.01 298.886L132.419 300.961C132.391 300.972 132.36 300.978 132.329 300.978C132.279 300.978 132.229 300.963 132.186 300.934C132.118 300.888 132.077 300.812 132.077 300.731V287.146C132.077 287.016 132.179 286.909 132.312 286.9L137.903 286.531C137.974 286.527 138.042 286.55 138.093 286.597C138.145 286.644 138.174 286.709 138.174 286.777V298.655H138.174ZM144.911 296.156C144.911 296.258 144.846 296.349 144.748 296.386L141.018 297.771C140.989 297.781 140.958 297.787 140.927 297.787C140.877 297.787 140.827 297.771 140.785 297.743C140.717 297.697 140.675 297.622 140.675 297.54V286.579C140.675 286.449 140.778 286.341 140.91 286.333L144.64 286.085C144.711 286.082 144.78 286.104 144.83 286.151C144.882 286.199 144.91 286.263 144.91 286.331V296.156H144.911V296.156ZM145.988 282.462C145.988 282.53 145.959 282.596 145.909 282.641C145.861 282.685 145.799 282.709 145.735 282.709C145.731 282.709 145.725 282.709 145.721 282.708L143.489 282.584C143.356 282.576 143.251 282.468 143.251 282.336V278.267C143.251 278.193 143.284 278.124 143.342 278.077C143.4 278.03 143.476 278.011 143.55 278.023L145.781 278.421C145.901 278.443 145.989 278.544 145.989 278.664V282.462H145.988ZM145.988 274.868C145.988 274.945 145.95 275.019 145.885 275.066C145.841 275.098 145.788 275.114 145.735 275.114C145.711 275.114 145.685 275.111 145.662 275.103L143.43 274.434C143.324 274.403 143.252 274.306 143.252 274.199V270.128C143.252 270.045 143.294 269.967 143.365 269.921C143.436 269.876 143.526 269.868 143.605 269.9L145.837 270.843C145.929 270.881 145.989 270.971 145.989 271.069V274.868H145.988V274.868ZM150.447 289.22C150.447 289.338 150.361 289.439 150.242 289.462L148.622 289.767C148.605 289.771 148.59 289.772 148.574 289.772C148.516 289.772 148.458 289.753 148.412 289.715C148.354 289.668 148.32 289.598 148.32 289.525V286.073C148.32 285.944 148.423 285.836 148.556 285.827L150.177 285.72C150.249 285.715 150.316 285.739 150.368 285.785C150.419 285.833 150.447 285.898 150.447 285.965V289.22ZM150.447 282.713C150.447 282.78 150.419 282.846 150.369 282.892C150.321 282.935 150.259 282.959 150.195 282.959C150.189 282.959 150.184 282.959 150.18 282.959L148.559 282.867C148.424 282.86 148.32 282.752 148.32 282.62V279.169C148.32 279.096 148.353 279.027 148.411 278.98C148.469 278.933 148.545 278.913 148.619 278.926L150.24 279.214C150.36 279.235 150.447 279.337 150.447 279.457V282.713H150.447ZM153.189 288.704C153.189 288.822 153.102 288.924 152.984 288.947L151.687 289.192C151.671 289.194 151.655 289.196 151.64 289.196C151.581 289.196 151.525 289.177 151.479 289.139C151.42 289.093 151.386 289.023 151.386 288.949V285.872C151.386 285.742 151.489 285.634 151.622 285.626L152.918 285.54C152.989 285.536 153.057 285.56 153.108 285.606C153.16 285.653 153.189 285.719 153.189 285.786V288.704H153.189ZM153.189 282.866C153.189 282.934 153.16 282.999 153.11 283.045C153.062 283.088 153 283.112 152.936 283.112C152.931 283.112 152.926 283.112 152.921 283.112L151.625 283.039C151.49 283.032 151.386 282.924 151.386 282.792V279.754C151.386 279.682 151.418 279.615 151.474 279.567C151.531 279.52 151.605 279.499 151.677 279.51L152.973 279.702C153.098 279.721 153.189 279.825 153.189 279.947V282.866H153.189Z" fill="white"/>
<path d="M274.509 344.251L281.336 342.203V337.238C281.336 336.956 281.5 336.698 281.758 336.574L300.196 327.669C300.196 327.669 300.361 327.579 300.586 327.594C300.809 327.608 300.973 327.729 300.973 327.729L314.12 336.882C314.32 337.021 314.438 337.246 314.438 337.485V362.771C314.438 363.041 314.287 363.29 314.044 363.42L300.897 370.453C300.897 370.453 300.746 370.535 300.579 370.545C300.413 370.555 300.262 370.496 300.262 370.496L281.825 363.654L274.461 360.92C274.167 360.81 273.973 360.535 273.973 360.227V344.959C273.974 344.634 274.19 344.347 274.509 344.251ZM311.26 357.941C311.26 358.017 311.297 358.091 311.359 358.137C311.404 358.17 311.457 358.187 311.512 358.187C311.534 358.187 311.558 358.185 311.58 358.178L313.073 357.774C313.181 357.745 313.257 357.647 313.257 357.536V353.805C313.257 353.736 313.227 353.67 313.174 353.622C313.121 353.576 313.05 353.553 312.98 353.56L311.488 353.702C311.358 353.715 311.26 353.821 311.26 353.948V357.941ZM311.26 349.954C311.26 350.083 311.36 350.19 311.492 350.201L312.985 350.32C312.991 350.321 312.999 350.321 313.004 350.321C313.068 350.321 313.13 350.298 313.176 350.256C313.229 350.21 313.258 350.144 313.258 350.076V346.344C313.258 346.231 313.18 346.134 313.07 346.105L311.577 345.722C311.502 345.703 311.42 345.719 311.358 345.765C311.297 345.813 311.261 345.885 311.261 345.961V349.954H311.26V349.954ZM311.26 341.967C311.26 342.064 311.318 342.153 311.41 342.193L312.902 342.838C312.935 342.852 312.97 342.858 313.004 342.858C313.053 342.858 313.102 342.844 313.142 342.818C313.214 342.773 313.257 342.695 313.257 342.611V338.88C313.257 338.795 313.212 338.715 313.138 338.671L311.647 337.764C311.568 337.715 311.471 337.714 311.39 337.758C311.311 337.801 311.261 337.884 311.261 337.972V341.967H311.26V341.967ZM307.543 358.949C307.543 359.026 307.58 359.099 307.643 359.146C307.687 359.179 307.742 359.196 307.795 359.196C307.818 359.196 307.841 359.194 307.863 359.187L309.862 358.644C309.972 358.615 310.048 358.517 310.048 358.407V354.111C310.048 354.042 310.018 353.975 309.964 353.929C309.911 353.881 309.841 353.859 309.77 353.865L307.77 354.057C307.641 354.069 307.543 354.175 307.543 354.301V358.949H307.543ZM307.543 349.654C307.543 349.783 307.644 349.89 307.775 349.901L309.774 350.062C309.782 350.063 309.788 350.063 309.795 350.063C309.858 350.063 309.919 350.04 309.966 349.998C310.019 349.951 310.049 349.885 310.049 349.817V345.521C310.049 345.409 309.971 345.311 309.86 345.282L307.861 344.769C307.785 344.75 307.704 344.766 307.642 344.813C307.58 344.86 307.544 344.932 307.544 345.009V349.654H307.543ZM307.543 340.36C307.543 340.457 307.601 340.545 307.693 340.585L309.693 341.449C309.726 341.464 309.76 341.47 309.795 341.47C309.844 341.47 309.891 341.456 309.933 341.43C310.004 341.384 310.048 341.306 310.048 341.222V336.927C310.048 336.843 310.002 336.763 309.928 336.718L307.929 335.502C307.851 335.454 307.752 335.452 307.673 335.495C307.592 335.539 307.543 335.622 307.543 335.711V340.359H307.543V340.36ZM302.369 360.351C302.369 360.424 302.398 360.492 302.452 360.544C302.543 360.635 302.669 360.636 302.71 360.636C302.711 360.636 302.711 360.636 302.711 360.636C303.21 360.636 305.144 359.957 305.526 359.82C305.625 359.784 305.693 359.691 305.693 359.588V354.526C305.693 354.457 305.663 354.39 305.609 354.344C305.557 354.296 305.486 354.274 305.416 354.28L302.598 354.549C302.468 354.562 302.369 354.668 302.369 354.796C302.369 354.847 302.371 360.114 302.369 360.351ZM302.369 349.237C302.369 349.366 302.47 349.473 302.601 349.484L305.419 349.711C305.426 349.712 305.433 349.712 305.44 349.712C305.504 349.712 305.565 349.689 305.612 349.647C305.664 349.599 305.694 349.535 305.694 349.465V344.404C305.694 344.291 305.616 344.193 305.505 344.164L302.688 343.442C302.613 343.423 302.531 343.438 302.469 343.485C302.408 343.533 302.37 343.605 302.37 343.681V349.237H302.369V349.237ZM302.369 338.123C302.369 338.221 302.429 338.309 302.52 338.349L305.337 339.566C305.37 339.581 305.404 339.587 305.439 339.587C305.488 339.587 305.535 339.574 305.578 339.547C305.65 339.501 305.693 339.424 305.693 339.34V334.279C305.693 334.194 305.648 334.115 305.574 334.07L302.756 332.356C302.678 332.309 302.581 332.306 302.5 332.35C302.42 332.394 302.369 332.477 302.369 332.566V338.123H302.369ZM291.17 335.352C291.17 335.269 291.127 335.191 291.056 335.146C290.985 335.1 290.895 335.093 290.817 335.125L287.81 336.395C287.717 336.434 287.658 336.524 287.658 336.621V341.006C287.658 341.084 287.695 341.157 287.76 341.204C287.804 341.236 287.857 341.253 287.911 341.253C287.935 341.253 287.96 341.25 287.985 341.241L290.992 340.34C291.097 340.308 291.17 340.212 291.17 340.103V335.352ZM291.17 344.855C291.17 344.782 291.137 344.713 291.079 344.665C291.021 344.618 290.945 344.599 290.871 344.612L287.865 345.147C287.744 345.168 287.657 345.271 287.657 345.391V349.815C287.657 349.883 287.686 349.948 287.737 349.995C287.784 350.038 287.846 350.061 287.911 350.061C287.916 350.061 287.923 350.061 287.928 350.061L290.935 349.852C291.067 349.842 291.169 349.736 291.169 349.606V344.855H291.17V344.855ZM298.999 332.049C298.999 331.966 298.956 331.888 298.885 331.843C298.813 331.797 298.724 331.789 298.645 331.822L294.374 333.625C294.28 333.664 294.222 333.753 294.222 333.851V339.036C294.222 339.114 294.259 339.188 294.324 339.235C294.368 339.267 294.421 339.283 294.473 339.283C294.499 339.283 294.524 339.279 294.548 339.272L298.819 337.991C298.925 337.96 298.998 337.863 298.998 337.755V332.049H298.999ZM298.999 349.168V343.461C298.999 343.388 298.965 343.319 298.907 343.272C298.849 343.225 298.773 343.205 298.699 343.218L294.428 343.979C294.308 344 294.221 344.102 294.221 344.222V349.407C294.221 349.474 294.249 349.54 294.3 349.586C294.347 349.629 294.409 349.652 294.472 349.652C294.478 349.652 294.483 349.652 294.487 349.652L298.759 349.413C298.894 349.407 298.999 349.3 298.999 349.168ZM290.664 366.235C290.664 366.338 290.729 366.429 290.828 366.466L296.419 368.541C296.447 368.552 296.478 368.558 296.509 368.558C296.559 368.558 296.609 368.543 296.652 368.514C296.72 368.468 296.761 368.392 296.761 368.311V354.726C296.761 354.597 296.659 354.489 296.526 354.481L290.935 354.111C290.863 354.108 290.796 354.131 290.745 354.177C290.693 354.225 290.664 354.29 290.664 354.357V366.235H290.664ZM283.927 363.736C283.927 363.838 283.992 363.93 284.09 363.966L287.82 365.351C287.849 365.362 287.88 365.367 287.911 365.367C287.961 365.367 288.011 365.352 288.053 365.323C288.121 365.277 288.163 365.202 288.163 365.12V354.159C288.163 354.029 288.06 353.921 287.928 353.913L284.198 353.665C284.127 353.662 284.058 353.685 284.008 353.731C283.956 353.779 283.928 353.844 283.928 353.911V363.736H283.927V363.736ZM282.85 350.043C282.85 350.11 282.879 350.176 282.929 350.222C282.977 350.266 283.039 350.289 283.102 350.289C283.107 350.289 283.113 350.289 283.117 350.288L285.349 350.164C285.482 350.156 285.587 350.048 285.587 349.916V345.847C285.587 345.774 285.554 345.704 285.496 345.658C285.438 345.61 285.362 345.591 285.288 345.604L283.057 346.001C282.937 346.023 282.849 346.124 282.849 346.244V350.043H282.85ZM282.85 342.448C282.85 342.525 282.888 342.6 282.953 342.646C282.997 342.678 283.05 342.695 283.102 342.695C283.127 342.695 283.153 342.691 283.176 342.684L285.408 342.015C285.514 341.984 285.586 341.887 285.586 341.779V337.708C285.586 337.625 285.544 337.547 285.473 337.502C285.402 337.456 285.312 337.449 285.233 337.481L283.001 338.423C282.909 338.461 282.849 338.551 282.849 338.65V342.448H282.85V342.448ZM278.391 356.8C278.391 356.918 278.477 357.019 278.596 357.042L280.216 357.348C280.233 357.351 280.248 357.352 280.264 357.352C280.322 357.352 280.38 357.333 280.426 357.295C280.484 357.248 280.518 357.179 280.518 357.105V353.653C280.518 353.524 280.415 353.416 280.282 353.407L278.661 353.3C278.589 353.295 278.522 353.319 278.47 353.366C278.419 353.413 278.391 353.478 278.391 353.546V356.8ZM278.391 350.293C278.391 350.361 278.419 350.426 278.469 350.472C278.517 350.515 278.579 350.539 278.643 350.539C278.649 350.539 278.654 350.539 278.658 350.539L280.279 350.447C280.414 350.44 280.518 350.332 280.518 350.201V346.75C280.518 346.676 280.485 346.607 280.427 346.56C280.369 346.513 280.293 346.494 280.219 346.506L278.598 346.794C278.478 346.815 278.39 346.918 278.39 347.037V350.293H278.391ZM275.649 356.285C275.649 356.403 275.736 356.504 275.854 356.527L277.151 356.772C277.167 356.774 277.183 356.776 277.198 356.776C277.257 356.776 277.313 356.757 277.359 356.72C277.418 356.673 277.452 356.604 277.452 356.53V353.452C277.452 353.323 277.348 353.215 277.216 353.206L275.92 353.121C275.849 353.116 275.781 353.14 275.73 353.186C275.678 353.233 275.649 353.299 275.649 353.366V356.285H275.649ZM275.649 350.446C275.649 350.514 275.677 350.579 275.728 350.626C275.776 350.669 275.838 350.692 275.902 350.692C275.907 350.692 275.912 350.692 275.917 350.692L277.213 350.619C277.348 350.612 277.452 350.504 277.452 350.372V347.335C277.452 347.262 277.42 347.195 277.364 347.147C277.307 347.101 277.233 347.08 277.161 347.091L275.865 347.282C275.74 347.302 275.649 347.405 275.649 347.527V350.446H275.649Z" fill="white"/>
<path d="M187 159.5H234M211 183V136" stroke="black"/>
<path d="M458.774 262.476C458.774 189.921 431.66 131.041 387.853 90.2987C344.042 49.5525 283.501 26.9175 216.6 26.9175C149.702 26.9175 91.3073 49.5506 49.6383 90.2887C7.97057 131.026 -17.0129 189.906 -17.0129 262.476M459.36 262.476C459.36 117.072 350.673 26.3448 216.6 26.3448C82.5278 26.3448 -17.5996 117.072 -17.5996 262.476" stroke="#BBB7B7" stroke-width="4"/>
<rect x="116" y="178" width="130" height="44" fill="#FF9999" fill-opacity="0.76"/>
<path d="M122.958 213H119.396V185.984H122.958V213ZM132.654 191.344V195.565H135.909V197.87H132.654V208.682C132.654 209.38 132.799 209.906 133.089 210.261C133.379 210.604 133.873 210.776 134.571 210.776C134.915 210.776 135.388 210.712 135.989 210.583V213C135.205 213.215 134.442 213.322 133.701 213.322C132.369 213.322 131.365 212.919 130.688 212.114C130.011 211.308 129.673 210.164 129.673 208.682V197.87H126.499V195.565H129.673V191.344H132.654ZM146.64 213.322C144.277 213.322 142.354 212.549 140.872 211.002C139.389 209.444 138.648 207.366 138.648 204.766V204.218C138.648 202.489 138.976 200.947 139.631 199.594C140.297 198.229 141.221 197.166 142.402 196.403C143.595 195.63 144.884 195.243 146.27 195.243C148.536 195.243 150.298 195.99 151.555 197.483C152.812 198.976 153.44 201.114 153.44 203.896V205.137H141.629C141.672 206.855 142.171 208.247 143.127 209.31C144.094 210.363 145.319 210.889 146.801 210.889C147.854 210.889 148.746 210.674 149.476 210.245C150.207 209.815 150.846 209.246 151.394 208.537L153.214 209.955C151.753 212.2 149.562 213.322 146.64 213.322ZM146.27 197.692C145.066 197.692 144.057 198.133 143.24 199.014C142.424 199.884 141.919 201.108 141.726 202.688H150.459V202.462C150.373 200.947 149.965 199.776 149.234 198.949C148.504 198.111 147.516 197.692 146.27 197.692ZM159.708 195.565L159.789 197.499C161.067 195.995 162.791 195.243 164.961 195.243C167.399 195.243 169.059 196.178 169.94 198.047C170.52 197.209 171.272 196.532 172.196 196.017C173.13 195.501 174.231 195.243 175.499 195.243C179.323 195.243 181.268 197.268 181.332 201.318V213H178.351V201.495C178.351 200.249 178.066 199.32 177.497 198.708C176.928 198.084 175.972 197.773 174.629 197.773C173.522 197.773 172.604 198.106 171.874 198.772C171.143 199.427 170.719 200.313 170.601 201.431V213H167.604V201.576C167.604 199.041 166.363 197.773 163.881 197.773C161.926 197.773 160.589 198.605 159.869 200.271V213H156.888V195.565H159.708ZM209.095 213H193.723V210.857L201.844 201.833C203.047 200.469 203.875 199.363 204.326 198.514C204.788 197.655 205.019 196.769 205.019 195.855C205.019 194.631 204.648 193.626 203.907 192.842C203.166 192.058 202.177 191.666 200.942 191.666C199.459 191.666 198.305 192.09 197.478 192.939C196.661 193.777 196.253 194.948 196.253 196.452H193.272C193.272 194.292 193.965 192.547 195.351 191.215C196.747 189.883 198.611 189.217 200.942 189.217C203.123 189.217 204.847 189.792 206.114 190.941C207.382 192.08 208.016 193.6 208.016 195.501C208.016 197.811 206.544 200.561 203.601 203.751L197.316 210.567H209.095V213Z" fill="white"/>
<path d="M111.189 255H108.176L112.253 231.539H115.266L111.189 255ZM124.064 233.344L123.323 237.565H126.497L126.094 239.87H122.936L121.115 250.714C121.083 250.993 121.078 251.251 121.099 251.487C121.174 252.325 121.631 252.744 122.469 252.744C122.823 252.744 123.296 252.69 123.887 252.583L123.661 255.016C122.963 255.209 122.254 255.306 121.534 255.306C120.374 255.285 119.504 254.86 118.924 254.033C118.344 253.195 118.118 252.073 118.247 250.666L120.02 239.87H116.942L117.345 237.565H120.422L121.164 233.344H124.064ZM134.538 255.322C132.368 255.279 130.67 254.479 129.446 252.921C128.221 251.364 127.706 249.371 127.899 246.943L127.979 246.25C128.162 244.521 128.672 242.942 129.51 241.513C130.359 240.084 131.39 239.01 132.604 238.291C133.818 237.56 135.128 237.211 136.536 237.243C138.33 237.286 139.737 237.882 140.757 239.032C141.778 240.181 142.336 241.739 142.433 243.705C142.465 244.403 142.444 245.101 142.369 245.799L142.191 247.137H130.799C130.606 248.716 130.864 250.059 131.573 251.165C132.292 252.271 133.361 252.846 134.779 252.889C136.498 252.932 138.088 252.159 139.549 250.569L141.225 251.987C140.494 253.04 139.549 253.867 138.389 254.468C137.239 255.059 135.956 255.344 134.538 255.322ZM136.391 239.676C135.188 239.644 134.135 240.052 133.232 240.901C132.341 241.75 131.632 243.012 131.105 244.688L139.581 244.704L139.646 244.446C139.817 243.092 139.597 241.97 138.985 241.078C138.383 240.176 137.519 239.708 136.391 239.676ZM149.861 237.549L149.491 239.499C150.952 237.952 152.719 237.2 154.792 237.243C155.898 237.265 156.833 237.517 157.596 238C158.369 238.484 158.901 239.166 159.191 240.047C160.824 238.135 162.752 237.2 164.976 237.243C166.716 237.286 168 237.872 168.827 239C169.654 240.127 169.96 241.642 169.745 243.543L167.828 255H164.927L166.829 243.511C166.893 242.953 166.893 242.442 166.829 241.98C166.625 240.52 165.668 239.773 163.96 239.741C162.897 239.719 161.93 240.052 161.06 240.74C160.201 241.417 159.647 242.308 159.4 243.415L157.418 255H154.486L156.419 243.527C156.559 242.335 156.376 241.417 155.872 240.772C155.377 240.127 154.604 239.794 153.551 239.773C151.736 239.73 150.291 240.557 149.217 242.254L147.009 255H144.093L147.122 237.565L149.861 237.549ZM178.543 241.819L180.477 241.835C181.895 241.835 183.087 241.465 184.054 240.724C185.031 239.972 185.59 238.957 185.729 237.678C185.869 236.432 185.638 235.455 185.037 234.746C184.435 234.026 183.56 233.655 182.41 233.634C181.186 233.612 180.144 233.972 179.284 234.713C178.436 235.444 177.915 236.432 177.721 237.678L174.837 237.694C175.02 235.761 175.841 234.192 177.302 232.989C178.774 231.775 180.525 231.179 182.555 231.201C184.521 231.244 186.062 231.861 187.18 233.054C188.308 234.235 188.796 235.798 188.646 237.743C188.549 238.849 188.125 239.859 187.373 240.772C186.621 241.685 185.579 242.442 184.247 243.044C185.311 243.474 186.105 244.156 186.632 245.09C187.158 246.014 187.378 247.099 187.292 248.345C187.121 250.461 186.277 252.164 184.763 253.453C183.259 254.742 181.427 255.365 179.268 255.322C177.259 255.279 175.659 254.656 174.466 253.453C173.274 252.25 172.721 250.698 172.807 248.796L175.723 248.812C175.659 250.016 175.949 250.988 176.593 251.729C177.238 252.459 178.172 252.846 179.397 252.889C180.772 252.932 181.916 252.54 182.829 251.713C183.742 250.886 184.263 249.779 184.392 248.394C184.51 247.115 184.22 246.122 183.522 245.413C182.824 244.693 181.782 244.312 180.396 244.269L178.156 244.252L178.543 241.819Z" fill="#EBEAEA"/>
<path d="M109.189 163H106.176L110.253 139.539H113.266L109.189 163ZM122.064 141.344L121.323 145.565H124.497L124.094 147.87H120.936L119.115 158.714C119.083 158.993 119.078 159.251 119.099 159.487C119.174 160.325 119.631 160.744 120.469 160.744C120.823 160.744 121.296 160.69 121.887 160.583L121.661 163.016C120.963 163.209 120.254 163.306 119.534 163.306C118.374 163.285 117.504 162.86 116.924 162.033C116.344 161.195 116.118 160.073 116.247 158.666L118.02 147.87H114.942L115.345 145.565H118.422L119.164 141.344H122.064ZM132.538 163.322C130.368 163.279 128.67 162.479 127.446 160.921C126.221 159.364 125.706 157.371 125.899 154.943L125.979 154.25C126.162 152.521 126.672 150.942 127.51 149.513C128.359 148.084 129.39 147.01 130.604 146.291C131.818 145.56 133.128 145.211 134.536 145.243C136.33 145.286 137.737 145.882 138.757 147.032C139.778 148.181 140.336 149.739 140.433 151.705C140.465 152.403 140.444 153.101 140.369 153.799L140.191 155.137H128.799C128.606 156.716 128.864 158.059 129.573 159.165C130.292 160.271 131.361 160.846 132.779 160.889C134.498 160.932 136.088 160.159 137.549 158.569L139.225 159.987C138.494 161.04 137.549 161.867 136.389 162.468C135.239 163.059 133.956 163.344 132.538 163.322ZM134.391 147.676C133.188 147.644 132.135 148.052 131.232 148.901C130.341 149.75 129.632 151.012 129.105 152.688L137.581 152.704L137.646 152.446C137.817 151.092 137.597 149.97 136.985 149.078C136.383 148.176 135.519 147.708 134.391 147.676ZM147.861 145.549L147.491 147.499C148.952 145.952 150.719 145.2 152.792 145.243C153.898 145.265 154.833 145.517 155.596 146C156.369 146.484 156.901 147.166 157.191 148.047C158.824 146.135 160.752 145.2 162.976 145.243C164.716 145.286 166 145.872 166.827 147C167.654 148.127 167.96 149.642 167.745 151.543L165.828 163H162.927L164.829 151.511C164.893 150.953 164.893 150.442 164.829 149.98C164.625 148.52 163.668 147.773 161.96 147.741C160.897 147.719 159.93 148.052 159.06 148.74C158.201 149.417 157.647 150.308 157.4 151.415L155.418 163H152.486L154.419 151.527C154.559 150.335 154.376 149.417 153.872 148.772C153.377 148.127 152.604 147.794 151.551 147.773C149.736 147.73 148.291 148.557 147.217 150.254L145.009 163H142.093L145.122 145.565L147.861 145.549ZM187.661 163H184.729L188.177 143.213L181.941 145.404L182.44 142.568L191.142 139.426H191.657L187.661 163Z" fill="#EBEAEA"/>
<path d="M-33.3145 498.984L-26.375 518.578L-19.4727 498.984H-12.1621V526H-17.7471V518.615L-17.1904 505.868L-24.4824 526H-28.3047L-35.5781 505.887L-35.0215 518.615V526H-40.5879V498.984H-33.3145ZM1.58691 526.371C-1.3571 526.371 -3.75684 525.468 -5.6123 523.662C-7.4554 521.856 -8.37695 519.45 -8.37695 516.444V515.925C-8.37695 513.909 -7.9873 512.109 -7.20801 510.525C-6.42871 508.93 -5.3278 507.705 -3.90527 506.852C-2.47038 505.986 -0.837565 505.553 0.993164 505.553C3.73926 505.553 5.89779 506.419 7.46875 508.15C9.05208 509.882 9.84375 512.338 9.84375 515.517V517.706H-2.94043C-2.76725 519.017 -2.24772 520.069 -1.38184 520.86C-0.503581 521.652 0.603516 522.048 1.93945 522.048C4.00521 522.048 5.61947 521.299 6.78223 519.803L9.41699 522.753C8.61296 523.891 7.52441 524.782 6.15137 525.425C4.77832 526.056 3.25684 526.371 1.58691 526.371ZM0.974609 509.895C-0.0891927 509.895 -0.955078 510.253 -1.62305 510.971C-2.27865 511.688 -2.69922 512.715 -2.88477 514.051H4.57422V513.624C4.54948 512.437 4.22786 511.521 3.60938 510.878C2.99089 510.222 2.11263 509.895 0.974609 509.895ZM17.8408 505.924L18.0078 508.243C19.4427 506.45 21.3662 505.553 23.7783 505.553C25.9059 505.553 27.4893 506.177 28.5283 507.427C29.5674 508.676 30.0993 510.544 30.124 513.03V526H24.7617V513.16C24.7617 512.022 24.5143 511.2 24.0195 510.692C23.5247 510.173 22.7021 509.913 21.5518 509.913C20.0426 509.913 18.9108 510.556 18.1562 511.843V526H12.7939V505.924H17.8408ZM46.2295 523.959C44.9059 525.567 43.0752 526.371 40.7373 526.371C38.585 526.371 36.9398 525.753 35.8018 524.516C34.6761 523.279 34.1009 521.466 34.0762 519.079V505.924H39.4385V518.894C39.4385 520.984 40.391 522.029 42.2959 522.029C44.1143 522.029 45.3636 521.398 46.0439 520.137V505.924H51.4248V526H46.3779L46.2295 523.959Z" fill="white"/>
</g>
<defs>
<radialGradient id="paint0_radial" cx="0" cy="0" r="1" gradientUnits="userSpaceOnUse" gradientTransform="translate(214.488 214.482) rotate(90) scale(969.613 525.137)">
<stop stop-color="#99FF99"/>
<stop offset="1" stop-color="#99FF99" stop-opacity="0"/>
</radialGradient>
<linearGradient id="paint1_linear" x1="211.172" y1="-443.447" x2="226.866" y2="623.219" gradientUnits="userSpaceOnUse">
<stop offset="0.132597"/>
<stop offset="0.878453" stop-color="#C4C4C4" stop-opacity="0"/>
</linearGradient>
<radialGradient id="paint2_angular" cx="0" cy="0" r="1" gradientUnits="userSpaceOnUse" gradientTransform="translate(219.05 730) rotate(-20.0333) scale(146.157 27.0546)">
<stop offset="0.176796" stop-color="#C4C4C4"/>
<stop offset="0.590567" stop-color="#373737" stop-opacity="0"/>
</radialGradient>
<radialGradient id="paint3_angular" cx="0" cy="0" r="1" gradientUnits="userSpaceOnUse" gradientTransform="translate(218.715 730) rotate(-153.668) scale(196.559 28.4857)">
<stop offset="0.590567" stop-color="#373737" stop-opacity="0"/>
<stop offset="0.795825" stop-color="#C4C4C4"/>
</radialGradient>
<radialGradient id="paint4_angular" cx="0" cy="0" r="1" gradientUnits="userSpaceOnUse" gradientTransform="translate(42.8865 645.833) rotate(-89.1368) scale(44.4625 4.20967)">
<stop offset="0.590567" stop-color="#373737" stop-opacity="0"/>
<stop offset="0.795825" stop-color="#C4C4C4"/>
</radialGradient>
<radialGradient id="paint5_angular" cx="0" cy="0" r="1" gradientUnits="userSpaceOnUse" gradientTransform="translate(399.232 643.243) rotate(-91.6461) scale(69.9523 45.8797)">
<stop offset="0.0276243" stop-color="#C4C4C4"/>
<stop offset="0.842927" stop-color="#373737" stop-opacity="0"/>
</radialGradient>
<clipPath id="clip0">
<rect width="440" height="764" fill="white"/>
</clipPath>
<clipPath id="clip1">
<rect width="73.92" height="72.1619" fill="white" transform="translate(60.4268 418.654)"/>
</clipPath>
</defs>
</svg>
